HIERARCHY
ROOT reference
{
  OFFSET 0 0 0
  CHANNELS 6 Xposition Yposition Zposition Zrotation Xrotation Yrotation
  JOINT Hips
  {
    OFFSET -9.63704 81.8045 109.831
    CHANNELS 6 Xposition Yposition Zposition Zrotation Xrotation Yrotation
    JOINT Spine
    {
      OFFSET 0 7.76127 0
      CHANNELS 6 Xposition Yposition Zposition Zrotation Xrotation Yrotation
      JOINT Spine1
      {
        OFFSET 0 24.7858 0
        CHANNELS 6 Xposition Yposition Zposition Zrotation Xrotation Yrotation
        JOINT Neck
        {
          OFFSET 0 24.684 2.244
          CHANNELS 6 Xposition Yposition Zposition Zrotation Xrotation Yrotation
          JOINT Head
          {
            OFFSET 0 13.2509 -1.89299
            CHANNELS 6 Xposition Yposition Zposition Zrotation Xrotation Yrotation
            End Site
            {
              OFFSET 0 23.6624 0
            }
          }
        }
        JOINT LeftShoulder
        {
          OFFSET 3.79413 23.4442 -0.177979
          CHANNELS 6 Xposition Yposition Zposition Zrotation Xrotation Yrotation
          JOINT LeftArm
          {
            OFFSET 9.21107 0 0
            CHANNELS 6 Xposition Yposition Zposition Zrotation Xrotation Yrotation
            JOINT LeftForeArm
            {
              OFFSET 34.3528 0 0
              CHANNELS 6 Xposition Yposition Zposition Zrotation Xrotation Yrotation
              JOINT LeftHand
              {
                OFFSET 25.4606 0 0
                CHANNELS 6 Xposition Yposition Zposition Zrotation Xrotation Yrotation
                End Site
                {
                  OFFSET 14.1974 0 0
                }
              }
            }
          }
        }
        JOINT RightShoulder
        {
          OFFSET -3.76739 23.4442 -0.177979
          CHANNELS 6 Xposition Yposition Zposition Zrotation Xrotation Yrotation
          JOINT RightArm
          {
            OFFSET -9.21107 0 0
            CHANNELS 6 Xposition Yposition Zposition Zrotation Xrotation Yrotation
            JOINT RightForeArm
            {
              OFFSET -34.3528 0 0
              CHANNELS 6 Xposition Yposition Zposition Zrotation Xrotation Yrotation
              JOINT RightHand
              {
                OFFSET -25.4606 0 0
                CHANNELS 6 Xposition Yposition Zposition Zrotation Xrotation Yrotation
                End Site
                {
                  OFFSET -14.1974 0 0
                }
              }
            }
          }
        }
      }
    }
    JOINT LeftUpLeg
    {
      OFFSET 9.46496 0 0
      CHANNELS 6 Xposition Yposition Zposition Zrotation Xrotation Yrotation
      JOINT LeftLeg
      {
        OFFSET 0 -36.0737 0
        CHANNELS 6 Xposition Yposition Zposition Zrotation Xrotation Yrotation
        JOINT LeftFoot
        {
          OFFSET 0 -40.8088 0
          CHANNELS 6 Xposition Yposition Zposition Zrotation Xrotation Yrotation
          JOINT LeftToeBase
          {
            OFFSET 0 -6.15222 14.1974
            CHANNELS 6 Xposition Yposition Zposition Zrotation Xrotation Yrotation
            End Site
            {
              OFFSET 0 0 3.78598
            }
          }
        }
      }
    }
    JOINT RightUpLeg
    {
      OFFSET -9.46496 0 0
      CHANNELS 6 Xposition Yposition Zposition Zrotation Xrotation Yrotation
      JOINT RightLeg
      {
        OFFSET 0 -36.0737 0
        CHANNELS 6 Xposition Yposition Zposition Zrotation Xrotation Yrotation
        JOINT RightFoot
        {
          OFFSET 0 -40.8088 0
          CHANNELS 6 Xposition Yposition Zposition Zrotation Xrotation Yrotation
          JOINT RightToeBase
          {
            OFFSET 0 -6.15222 14.1974
            CHANNELS 6 Xposition Yposition Zposition Zrotation Xrotation Yrotation
            End Site
            {
              OFFSET 0 0 3.78598
            }
          }
        }
      }
    }
  }
}
MOTION
Frames:	11
Frame Time:	0.004
0 0 0 0 0 -0 -22.7762 78.4082 -204.915 0.198147 0.185571 11.7704 -3.55271e-015 7.76127 0 0.923274 -5.6057 0.2672 -7.10543e-015 24.7858 2.84217e-014 -2.12828 -2.08568 0.183847 -3.55271e-015 24.684 2.244 1.15498 15.8041 -1.28041 -7.10543e-015 13.2509 -1.89299 0.718062 7.56751 -1.27979 3.79413 23.4442 -0.177979 13.2513 -0.636708 -7.61263 9.21107 -2.84217e-014 0 -9.63269 -4.52784 -3.42819 34.3528 0 2.84217e-014 2.06247 5.19815 -0.865562 25.4606 0 0 -11.5912 5.09406 1.18391 -3.76739 23.4442 -0.177979 -13.9747 -0.760354 -0.254229 -9.21107 0 2.84217e-014 12.5665 -5.02645 -2.13691 -34.3528 0 0 -1.01579 1.44966 -2.31119 -25.4606 -2.84217e-014 0 0.8342 1.45997 4.22634 9.46496 0 0 -1.41749 6.29851 0.517246 3.55271e-015 -36.0737 0 1.10193 -2.46146 -5.14025 3.55271e-015 -40.8088 0 2.54012 -4.33942 11.0695 0 -6.15222 14.1974 -2.48481e-017 -3.72721e-017 -3.18055e-015 -9.46496 1.42109e-014 0 -0.71548 13.1909 -5.93111 0 -36.0737 -2.84217e-014 0.881206 -11.7646 -0.730809 -7.10543e-015 -40.8088 0 -1.08039 -1.46137 -28.5147 -1.42109e-014 -6.15222 14.1974 -2.36057e-016 -9.93923e-017 -6.36111e-015 
0 0 0 0 0 -0 -22.7649 78.4082 -204.915 0.197288 0.189968 11.7538 7.10543e-015 7.76127 0 0.923955 -5.60083 0.274405 -3.55271e-015 24.7858 -2.84217e-014 -2.12803 -2.08568 0.190506 -7.10543e-015 24.684 2.244 1.15498 15.8041 -1.28041 -3.55271e-015 13.2509 -1.89299 0.700249 7.59541 -1.27987 3.79413 23.4442 -0.177979 13.2534 -0.622265 -7.59473 9.21107 0 0 -9.63161 -4.50697 -3.4303 34.3528 0 0 2.062 5.16759 -0.86552 25.4606 2.84217e-014 0 -11.5536 5.0657 1.16647 -3.76739 23.4442 -0.177979 -13.9746 -0.757074 -0.254229 -9.21107 0 -2.84217e-014 12.4474 -5.40582 -2.1002 -34.3528 -2.84217e-014 -2.84217e-014 -0.778716 1.63574 -2.4308 -25.4606 0 0 0.699671 1.6455 4.30369 9.46496 -1.42109e-014 2.84217e-014 -1.43383 6.30834 0.533756 0 -36.0737 0 1.1002 -2.48597 -5.1294 0 -40.8088 0 2.56269 -4.32484 11.0538 0 -6.15222 14.1974 7.45443e-017 -3.47873e-016 -0 -9.46496 1.42109e-014 0 -0.738641 13.1875 -5.91812 3.55271e-015 -36.0737 0 0.888978 -11.7633 -0.692773 -7.10543e-015 -40.8088 2.84217e-014 -1.08268 -1.44772 -28.5293 0 -6.15222 14.1974 4.47266e-016 2.73329e-016 -6.36111e-015 
0 0 0 0 0 -0 -22.7546 78.4082 -204.915 0.194349 0.204223 11.7466 3.55271e-015 7.76127 -2.84217e-014 0.924553 -5.61507 0.279828 3.55271e-015 24.7858 2.84217e-014 -2.12356 -2.08017 0.196072 -3.55271e-015 24.684 2.244 1.14889 15.8041 -1.28041 -3.55271e-015 13.2509 -1.89299 0.703566 7.6083 -1.27991 3.79413 23.4442 -0.177979 13.2511 -0.640016 -7.59466 9.21107 2.84217e-014 2.84217e-014 -9.64 -4.52274 -3.41795 34.3528 0 0 2.06206 5.17169 -0.865525 25.4606 2.84217e-014 2.84217e-014 -11.532 5.07208 1.1444 -3.76739 23.4442 -0.177979 -13.9746 -0.744989 -0.254229 -9.21107 0 -2.84217e-014 12.5741 -5.0405 -2.13474 -34.3528 0 0 -1.02263 1.44682 -2.32733 -25.4606 0 0 0.820235 1.45647 4.25179 9.46496 -1.42109e-014 -2.84217e-014 -1.44346 6.29029 0.513666 3.55271e-015 -36.0737 2.84217e-014 1.10092 -2.46669 -5.15278 0 -40.8088 0 2.56493 -4.32484 11.0965 0 -6.15222 14.1974 -2.48481e-017 -2.48481e-017 -3.18055e-015 -9.46496 0 0 -0.754329 13.167 -5.92911 0 -36.0737 0 0.898838 -11.7506 -0.696253 3.55271e-015 -40.8088 0 -1.08242 -1.44998 -28.502 0 -6.15222 14.1974 1.61513e-016 1.49089e-016 -3.18055e-015 
0 0 0 0 0 -0 -22.745 78.4082 -204.915 0.190139 0.220013 11.7338 0 7.76127 2.84217e-014 0.923716 -5.61604 0.284754 -3.55271e-015 24.7858 -2.84217e-014 -2.11422 -2.09966 0.200392 0 24.684 2.244 1.11508 15.8041 -1.28041 0 13.2509 -1.89299 0.758964 7.64208 -1.28001 3.79413 23.4442 -0.177979 13.2516 -0.636491 -7.58534 9.21107 0 2.84217e-014 -9.65048 -4.50855 -3.40917 34.3528 0 0 2.07482 5.13622 -0.865477 25.4606 0 0 -11.5483 5.03798 1.13026 -3.76739 23.4442 -0.177979 -13.9746 -0.740883 -0.254228 -9.21107 2.84217e-014 0 12.5679 -5.08174 -2.1351 -34.3528 2.84217e-014 2.84217e-014 -1.01161 1.45776 -2.34083 -25.4606 0 -2.84217e-014 0.778907 1.466 4.24992 9.46496 0 0 -1.45313 6.27286 0.515781 -7.10543e-015 -36.0737 2.84217e-014 1.10044 -2.46835 -5.16032 -1.77636e-015 -40.8088 -2.84217e-014 2.5609 -4.31743 11.1161 0 -6.15222 14.1974 2.04997e-016 1.2424e-016 3.18055e-015 -9.46496 -1.42109e-014 0 -0.765459 13.14 -5.93848 -7.10543e-015 -36.0737 2.84217e-014 0.905078 -11.7418 -0.694754 0 -40.8088 -2.84217e-014 -1.09947 -1.44845 -28.4846 1.42109e-014 -6.15222 14.1974 1.73937e-016 5.71506e-016 -3.18055e-015 
0 0 0 0 0 -0 -22.7394 78.4082 -204.915 0.182873 0.206846 11.7327 0 7.76127 0 0.922239 -5.60546 0.283707 -7.10543e-015 24.7858 0 -2.09305 -2.09223 0.200141 -3.55271e-015 24.684 2.244 1.12014 15.8055 -1.28042 3.55271e-015 13.2509 -1.89299 0.731273 7.65152 -1.28004 3.79413 23.4442 -0.177979 13.2487 -0.646891 -7.57703 9.21107 0 -2.84217e-014 -9.66116 -4.47985 -3.39949 34.3528 -2.84217e-014 0 2.08829 5.09652 -0.865682 25.4606 2.84217e-014 2.84217e-014 -11.5225 4.99855 1.13114 -3.76739 23.4442 -0.177979 -13.9745 -0.735509 -0.254228 -9.21107 0 0 12.5678 -5.06974 -2.1408 -34.3528 2.84217e-014 0 -1.0202 1.44477 -2.33406 -25.4606 -2.84217e-014 0 0.791472 1.45339 4.25227 9.46496 1.42109e-014 0 -1.44057 6.29351 0.51542 -3.55271e-015 -36.0737 2.84217e-014 1.09453 -2.47319 -5.14912 0 -40.8088 0 2.55643 -4.33241 11.0925 -7.10543e-015 -6.15222 14.1974 -1.80149e-016 -2.48481e-017 -9.54166e-015 -9.46496 0 2.84217e-014 -0.755727 13.1572 -5.95562 0 -36.0737 0 0.907768 -11.7378 -0.65509 3.55271e-015 -40.8088 0 -1.06185 -1.47287 -28.5197 0 -6.15222 14.1974 -8.69683e-017 1.98785e-016 3.18055e-015 
0 0 0 0 0 -0 -22.7289 78.4082 -204.915 0.190361 0.217329 11.7184 0 7.76127 0 0.922174 -5.60856 0.287068 3.55271e-015 24.7858 -2.84217e-014 -2.08423 -2.09954 0.203821 3.55271e-015 24.684 2.244 1.1006 15.825 -1.28054 0 13.2509 -1.89299 0.75384 7.6497 -1.28003 3.79413 23.4442 -0.177979 13.2317 -0.631859 -7.56722 9.21107 0 -2.84217e-014 -9.64787 -4.5028 -3.39844 34.3528 2.84217e-014 -2.84217e-014 2.11595 5.09054 -0.854274 25.4606 2.84217e-014 0 -11.6766 4.99621 1.08052 -3.76739 23.4442 -0.177979 -13.9744 -0.733326 -0.244636 -9.21107 0 0 12.5661 -5.11516 -2.14582 -34.3528 2.84217e-014 2.84217e-014 -1.02913 1.46194 -2.3577 -25.4606 -2.84217e-014 2.84217e-014 0.84281 1.47235 4.29236 9.46496 0 -2.84217e-014 -1.45708 6.27568 0.514626 -3.55271e-015 -36.0737 0 1.08854 -2.46079 -5.13921 1.77636e-015 -40.8088 2.84217e-014 2.55019 -4.32402 11.0993 -1.42109e-014 -6.15222 14.1974 -4.96962e-017 1.11816e-016 6.36111e-015 -9.46496 0 2.84217e-014 -0.783795 13.1361 -5.95179 0 -36.0737 -2.84217e-014 0.921105 -11.7215 -0.664339 7.10543e-015 -40.8088 2.84217e-014 -1.09211 -1.4764 -28.5006 0 -6.15222 14.1974 1.61513e-016 7.45443e-017 3.18055e-015 
0 0 0 0 0 -0 -22.7227 78.4082 -204.915 0.18234 0.202073 11.7114 3.55271e-015 7.76127 0 0.926961 -5.58515 0.291504 3.55271e-015 24.7858 0 -2.06126 -2.1079 0.208323 0 24.684 2.244 1.08984 15.8447 -1.27393 -3.55271e-015 13.2509 -1.89299 0.751084 7.6359 -1.27304 3.79413 23.4442 -0.177979 13.2223 -0.635661 -7.56058 9.21107 -2.84217e-014 0 -9.65173 -4.49015 -3.38513 34.3528 0 0 2.10642 5.03154 -0.863719 25.4606 0 0 -11.6844 4.93089 1.14258 -3.76739 23.4442 -0.177979 -13.9788 -0.743763 -0.239879 -9.21107 0 0 12.5668 -5.09426 -2.15668 -34.3528 -2.84217e-014 -2.84217e-014 -1.02214 1.46242 -2.35653 -25.4606 0 0 0.834501 1.47279 4.30444 9.46496 0 2.84217e-014 -1.4471 6.28887 0.5151 0 -36.0737 -2.84217e-014 1.08225 -2.45859 -5.04823 0 -40.8088 -2.84217e-014 2.60204 -4.34492 11.0118 0 -6.15222 14.1974 -1.55301e-016 6.21202e-017 3.18055e-015 -9.46496 0 2.84217e-014 -0.777708 13.143 -5.95866 7.10543e-015 -36.0737 0 0.923069 -11.7122 -0.635518 0 -40.8088 2.84217e-014 -1.06617 -1.47357 -28.5258 0 -6.15222 14.1974 -1.98785e-016 2.23633e-016 -3.18055e-015 
0 0 0 0 0 -0 -22.7144 78.4091 -204.915 0.186998 0.209019 11.7046 3.55271e-015 7.76127 0 0.934067 -5.58892 0.296992 -3.55271e-015 24.7858 0 -2.0812 -2.10947 0.213005 0 24.684 2.244 1.14133 15.9164 -1.30523 0 13.2509 -1.89299 0.653043 7.52693 -1.31194 3.79413 23.4442 -0.177979 13.241 -0.622091 -7.54859 9.21107 -2.84217e-014 0 -9.66185 -4.47782 -3.39143 34.3528 -2.84217e-014 0 2.12147 4.98231 -0.85648 25.4606 0 2.84217e-014 -11.6561 4.88236 1.13832 -3.76739 23.4442 -0.177979 -13.9617 -0.737344 -0.245064 -9.21107 -2.84217e-014 -2.84217e-014 12.5672 -5.11421 -2.15383 -34.3528 0 0 -1.0146 1.47133 -2.36308 -25.4606 -2.84217e-014 0 0.796892 1.48027 4.28757 9.46496 1.42109e-014 -2.84217e-014 -1.45934 6.28782 0.522289 0 -36.0737 0 1.08002 -2.45293 -5.10995 0 -40.8088 0 2.61138 -4.33729 11.0845 0 -6.15222 14.1974 3.19919e-016 2.36057e-016 -0 -9.46496 2.84217e-014 0 -0.792214 13.1389 -5.95269 -7.10543e-015 -36.0737 -2.84217e-014 0.924998 -11.7124 -0.625548 -7.10543e-015 -40.8088 0 -1.12372 -1.46393 -28.5213 0 -6.15222 14.1974 5.34234e-016 0 -6.36111e-015 
0 0 0 0 0 -0 -22.6823 78.4287 -204.952 0.232863 0.386547 11.6854 0 7.76127 -2.84217e-014 0.897579 -5.72788 0.310863 3.55271e-015 24.7858 0 -2.11143 -2.13263 0.226928 7.10543e-015 24.684 2.244 1.14284 15.9747 -1.32284 -3.55271e-015 13.2509 -1.89299 0.652491 7.45352 -1.32934 3.79413 23.4442 -0.177979 13.2453 -0.61923 -7.54253 9.21107 2.84217e-014 -2.84217e-014 -9.67441 -4.50236 -3.3869 34.3528 0 0 2.1201 4.95043 -0.840405 25.4606 2.84217e-014 0 -11.6083 4.85251 1.11994 -3.76739 23.4442 -0.177979 -13.9655 -0.729098 -0.255715 -9.21107 -2.84217e-014 0 12.5702 -5.09418 -2.15216 -34.3528 2.84217e-014 -2.84217e-014 -1.02538 1.46143 -2.35912 -25.4606 2.84217e-014 2.84217e-014 0.853483 1.47241 4.30373 9.46496 1.42109e-014 0 -1.59718 6.08151 0.418787 3.55271e-015 -36.0737 0 1.138 -2.42411 -4.95098 3.55271e-015 -40.8088 -2.84217e-014 2.39512 -4.21046 11.0472 0 -6.15222 14.1974 1.84808e-016 8.61918e-017 3.18055e-015 -9.46496 1.42109e-014 0 -0.934044 12.9033 -5.99046 3.55271e-015 -36.0737 0 0.987509 -11.6198 -0.584278 0 -40.8088 0 -1.13317 -1.4864 -28.5061 1.42109e-014 -6.15222 14.1974 -1.2424e-016 1.49089e-016 -3.18055e-015 
0 0 0 0 0 -0 -22.6758 78.4293 -204.954 0.232596 0.394346 11.6821 -3.55271e-015 7.76127 0 0.892679 -5.72952 0.311365 3.55271e-015 24.7858 2.84217e-014 -2.09387 -2.13397 0.227845 0 24.684 2.244 1.09652 15.9235 -1.30551 0 13.2509 -1.89299 0.736819 7.56196 -1.30574 3.79413 23.4442 -0.177979 13.232 -0.62107 -7.53917 9.21107 -2.84217e-014 0 -9.67466 -4.4415 -3.37284 34.3528 0 2.84217e-014 2.14622 4.87923 -0.832947 25.4606 -2.84217e-014 0 -11.6072 4.7828 1.10576 -3.76739 23.4442 -0.177979 -13.9769 -0.725401 -0.25736 -9.21107 0 2.84217e-014 12.4595 -5.45294 -2.11748 -34.3528 0 0 -0.785159 1.64495 -2.46602 -25.4606 0 0 0.693338 1.65449 4.36777 9.46496 -1.42109e-014 0 -1.60399 6.06235 0.423799 0 -36.0737 0 1.13984 -2.39995 -5.0007 3.55271e-015 -40.8088 0 2.42205 -4.2204 11.1017 0 -6.15222 14.1974 1.30477e-016 -8.20181e-017 -3.18055e-015 -9.46496 0 0 -0.942109 12.8853 -5.9875 -3.55271e-015 -36.0737 2.84217e-014 0.985504 -11.6045 -0.597728 0 -40.8088 -2.84217e-014 -1.12581 -1.49624 -28.4908 0 -6.15222 14.1974 -1.86361e-016 -4.96962e-017 -3.18055e-015 
0 0 0 0 0 -0 -22.6696 78.43 -204.955 0.232825 0.393714 11.6734 -7.10543e-015 7.76127 -2.84217e-014 0.895706 -5.72308 0.31924 -3.55271e-015 24.7858 0 -2.08844 -2.13875 0.235746 3.55271e-015 24.684 2.244 1.13353 15.9414 -1.30494 0 13.2509 -1.89299 0.628635 7.53234 -1.31334 3.79413 23.4442 -0.177979 13.2395 -0.630685 -7.55205 9.21107 -5.68434e-014 -2.84217e-014 -9.68529 -4.46295 -3.35292 34.3528 0 0 2.14377 4.83919 -0.829749 25.4606 0 0 -11.6242 4.74052 1.12528 -3.76739 23.4442 -0.177979 -13.9705 -0.723506 -0.260646 -9.21107 -2.84217e-014 2.84217e-014 12.5716 -5.10587 -2.16191 -34.3528 0 0 -1.0161 1.47977 -2.36706 -25.4606 -2.84217e-014 2.84217e-014 0.834259 1.49025 4.31703 9.46496 0 -2.84217e-014 -1.59938 6.07365 0.407553 3.55271e-015 -36.0737 0 1.12599 -2.40265 -4.95926 -3.55271e-015 -40.8088 0 2.41319 -4.21642 11.0827 0 -6.15222 14.1974 -1.46759e-016 -1.22687e-016 -0 -9.46496 0 0 -0.948161 12.8925 -5.9711 0 -36.0737 0 0.987168 -11.6109 -0.594513 0 -40.8088 0 -1.10328 -1.48624 -28.52 0 -6.15222 14.1974 2.85753e-016 1.73937e-016 -6.36111e-015 
